<svg width="1440" height="1629" viewBox="0 0 1440 1629" fill="none" xmlns="http://www.w3.org/2000/svg">
<g filter="url(#filter0_f_1502_3)">
<ellipse cx="319.5" cy="856" rx="432.5" ry="461" fill="#E7E7F6"/>
</g>
<circle cx="389.613" cy="41.8861" r="2.76497" transform="rotate(4.10735 389.613 41.8861)" fill="#3CEA2E"/>
<circle cx="181.234" cy="33.021" r="6.63593" transform="rotate(4.10735 181.234 33.021)" fill="#04C25A"/>
<circle cx="325.179" cy="82.167" r="4.42395" transform="rotate(4.10735 325.179 82.167)" fill="#FE0200"/>
<circle cx="456.362" cy="23.3938" r="7.18892" transform="rotate(4.10735 456.362 23.3938)" fill="#04C25A"/>
<circle cx="119.585" cy="3.64518" r="2.76497" transform="rotate(4.10735 119.585 3.64518)" fill="#49DF33"/>
<circle cx="282.927" cy="556.244" r="4.2439" fill="#8F74DF"/>
<circle cx="287.171" cy="643.244" r="3.18293" fill="#3DE52F"/>
<circle cx="366.213" cy="709.555" r="4.77439" fill="#3E25D0"/>
<circle cx="234.122" cy="670.829" r="2.12195" fill="#BB8627"/>
<circle cx="488.756" cy="581.707" r="4.2439" fill="#FF0000"/>
<circle cx="348.707" cy="618.841" r="7.42683" fill="#12BC61"/>
<circle cx="1392.32" cy="686.521" r="4.2439" transform="rotate(42.4777 1392.32 686.521)" fill="#8F74DF"/>
<circle cx="1336.69" cy="753.553" r="3.18293" transform="rotate(42.4777 1336.69 753.553)" fill="#3DE52F"/>
<circle cx="1350.21" cy="855.838" r="4.77439" transform="rotate(42.4777 1350.21 855.838)" fill="#3E25D0"/>
<circle cx="1278.94" cy="738.074" r="2.12195" transform="rotate(42.4777 1278.94 738.074)" fill="#BB8627"/>
<circle cx="1259.61" cy="776.474" r="2.12195" transform="rotate(42.4777 1259.61 776.474)" fill="#A54FC9"/>
<circle cx="1398.56" cy="777.111" r="7.42683" transform="rotate(42.4777 1398.56 777.111)" fill="#12BC61"/>
<defs>
<filter id="filter0_f_1502_3" x="-424.676" y="83.324" width="1488.35" height="1545.35" filterUnits="userSpaceOnUse" color-interpolation-filters="sRGB">
<feFlood flood-opacity="0" result="BackgroundImageFix"/>
<feBlend mode="normal" in="SourceGraphic" in2="BackgroundImageFix" result="shape"/>
<feGaussianBlur stdDeviation="155.838" result="effect1_foregroundBlur_1502_3"/>
</filter>
</defs>
</svg>
