<svg width="607" height="111" viewBox="0 0 607 111" fill="none" xmlns="http://www.w3.org/2000/svg">
<path d="M57.7173 39.8333L56.7205 39.9131L56.7941 40.8333H57.7173V39.8333ZM54.033 32.17L53.386 32.9325L53.3917 32.9373L54.033 32.17ZM37.2326 30.4506L37.5799 31.3884L37.5893 31.3849L37.2326 30.4506ZM33.3027 33.1525L32.4999 32.5561H32.4999L33.3027 33.1525ZM31.9763 37.0824L32.9749 37.1364L32.9757 37.1205L32.9761 37.1046L31.9763 37.0824ZM32.6149 40.3737L31.7205 40.8209L31.7296 40.839L31.7394 40.8568L32.6149 40.3737ZM35.0711 42.9773L34.4945 43.7942L34.5026 43.8L34.5108 43.8056L35.0711 42.9773ZM39.3449 45.0405L39.0075 45.9818L39.3449 45.0405ZM45.5346 46.7107L45.7441 45.7329L45.7358 45.7312L45.5346 46.7107ZM53.7874 48.4792L53.5779 49.457L53.5802 49.4575L53.7874 48.4792ZM68.0825 53.146L67.6442 54.0448L68.0825 53.146ZM77.8091 59.9742L77.0886 60.6677L77.0929 60.6722L77.8091 59.9742ZM83.3601 68.7183L82.4203 69.06L82.4234 69.0684L83.3601 68.7183ZM85.2268 79.3291L86.2269 79.334L86.2268 79.3205L85.2268 79.3291ZM80.2653 96.1295L81.079 96.7107L80.2653 96.1295ZM66.2158 106.593L65.8504 105.662L65.8487 105.663L66.2158 106.593ZM21.4638 106.298L21.0932 107.227L21.0948 107.228L21.4638 106.298ZM6.33357 94.361L5.49917 94.9122L5.50308 94.9181L6.33357 94.361ZM0.929924 73.6307V72.6307H-0.0739744L-0.0700681 73.6346L0.929924 73.6307ZM26.8674 73.6307L27.866 73.5776L27.8156 72.6307H26.8674V73.6307ZM29.1763 81.3923L28.3402 81.9409L29.1763 81.3923ZM34.9729 86.1573L34.5746 87.0746L34.579 87.0765L34.9729 86.1573ZM51.2821 86.6977L51.6263 87.6366L51.2821 86.6977ZM55.7524 83.7011L56.5352 84.3234H56.5352L55.7524 83.7011ZM57.3243 79.3291L58.3241 79.3491L58.3246 79.3284L58.3241 79.3078L57.3243 79.3291ZM55.8015 75.3009L55.0227 75.9282L55.0323 75.9401L55.0422 75.9517L55.8015 75.3009ZM51.0856 72.157L50.6883 73.0748L50.7 73.0796L51.0856 72.157ZM42.1941 69.5043L42.4083 68.5275L42.405 68.5267L42.1941 69.5043ZM32.1728 67.3428L31.9608 68.3201L31.962 68.3203L32.1728 67.3428ZM11.0986 57.6654L10.4333 58.412L10.4384 58.4165L11.0986 57.6654ZM3.48438 39.0473L4.48441 39.0515L4.48436 39.0422L3.48438 39.0473ZM8.59328 22.2961L7.78216 21.7112L7.78143 21.7122L8.59328 22.2961ZM22.9866 11.0466L22.5868 10.13L22.585 10.1308L22.9866 11.0466ZM65.2333 11.0958L64.8165 12.0047L65.2333 11.0958ZM78.9389 22.5908L78.1001 23.1352L78.1043 23.1416L78.9389 22.5908ZM83.8513 39.8333V40.8333H84.8563L84.8513 39.8284L83.8513 39.8333ZM58.7141 39.7536C58.4342 36.2544 57.1057 33.4348 54.6743 31.4027L53.3917 32.9373C55.3488 34.573 56.4765 36.8624 56.7205 39.9131L58.7141 39.7536ZM54.68 31.4075C52.2607 29.3547 48.6912 28.419 44.1591 28.419V30.419C48.4693 30.419 51.4825 31.3173 53.386 32.9325L54.68 31.4075ZM44.1591 28.419C41.2719 28.419 38.8306 28.7701 36.8759 29.5164L37.5893 31.3849C39.237 30.7557 41.4134 30.419 44.1591 30.419V28.419ZM36.8853 29.5129C34.9923 30.214 33.4986 31.2118 32.4999 32.5561L34.1054 33.7488C34.8097 32.8007 35.936 31.9973 37.5799 31.3884L36.8853 29.5129ZM32.4999 32.5561C31.5207 33.8744 31.0138 35.3864 30.9766 37.0602L32.9761 37.1046C33.0044 35.8309 33.3817 34.723 34.1054 33.7488L32.4999 32.5561ZM30.9778 37.0284C30.9039 38.3948 31.1437 39.6674 31.7205 40.8209L33.5094 39.9265C33.1036 39.1151 32.9177 38.1934 32.9749 37.1364L30.9778 37.0284ZM31.7394 40.8568C32.3527 41.9685 33.2882 42.9428 34.4945 43.7942L35.6478 42.1603C34.6271 41.4398 33.9251 40.6784 33.4905 39.8906L31.7394 40.8568ZM34.5108 43.8056C35.7138 44.6193 37.22 45.341 39.0075 45.9818L39.6824 44.0991C37.9985 43.4955 36.6554 42.8417 35.6314 42.149L34.5108 43.8056ZM39.0075 45.9818C40.7992 46.6241 42.9102 47.1923 45.3333 47.6902L45.7358 45.7312C43.3775 45.2466 41.3621 44.7013 39.6824 44.0991L39.0075 45.9818ZM45.325 47.6885L53.5779 49.457L53.9969 47.5014L45.7441 45.7329L45.325 47.6885ZM53.5802 49.4575C59.0895 50.6241 63.7727 52.157 67.6442 54.0448L68.5208 52.2471C64.4669 50.2704 59.6201 48.6922 53.9946 47.5009L53.5802 49.4575ZM67.6442 54.0448C71.5232 55.9362 74.6634 58.148 77.0886 60.6677L78.5295 59.2807C75.9113 56.5605 72.5671 54.2201 68.5208 52.2471L67.6442 54.0448ZM77.0929 60.6722C79.5205 63.1627 81.2921 65.9574 82.4203 69.06L84.2999 68.3765C83.0702 64.9948 81.1411 61.9601 78.5252 59.2762L77.0929 60.6722ZM82.4234 69.0684C83.5901 72.1902 84.195 75.6102 84.2268 79.3376L86.2268 79.3205C86.1931 75.3846 85.5535 71.7307 84.2968 68.3682L82.4234 69.0684ZM84.2268 79.3241C84.1949 85.7698 82.5865 91.1594 79.4515 95.5483L81.079 96.7107C84.494 91.9298 86.1932 86.1191 86.2268 79.334L84.2268 79.3241ZM79.4515 95.5483C76.3063 99.9516 71.7914 103.33 65.8504 105.662L66.5811 107.524C72.8229 105.074 77.6744 101.477 81.079 96.7107L79.4515 95.5483ZM65.8487 105.663C59.9368 107.996 52.7814 109.179 44.3556 109.179V111.179C52.9594 111.179 60.3775 109.972 66.5828 107.523L65.8487 105.663ZM44.3556 109.179C35.7077 109.179 28.2074 107.899 21.8328 105.369L21.0948 107.228C27.7544 109.871 35.5153 111.179 44.3556 111.179V109.179ZM21.8344 105.369C15.5216 102.851 10.6451 98.994 7.16406 93.804L5.50308 94.9181C9.22685 100.47 14.4372 104.571 21.0932 107.227L21.8344 105.369ZM7.16795 93.8098C3.73342 88.6108 1.96213 81.9063 1.92992 73.6268L-0.0700681 73.6346C-0.0367854 82.1883 1.79436 89.304 5.49919 94.9122L7.16795 93.8098ZM0.929924 74.6307H26.8674V72.6307H0.929924V74.6307ZM25.8688 73.6838C26.0398 76.8986 26.8477 79.6666 28.3402 81.9409L30.0123 80.8436C28.7539 78.926 28.0225 76.5197 27.866 73.5776L25.8688 73.6838ZM28.3402 81.9409C29.8314 84.2133 31.9223 85.9229 34.5746 87.0746L35.3712 85.2401C33.0456 84.2302 31.272 82.7632 30.0123 80.8436L28.3402 81.9409ZM34.579 87.0765C37.2535 88.2227 40.3904 88.7784 43.9626 88.7784V86.7784C40.592 86.7784 37.7357 86.2534 35.3668 85.2382L34.579 87.0765ZM43.9626 88.7784C46.9521 88.7784 49.5171 88.4099 51.6263 87.6366L50.9378 85.7588C49.1171 86.4264 46.8025 86.7784 43.9626 86.7784V88.7784ZM51.6263 87.6366C53.7158 86.8704 55.3775 85.7798 56.5352 84.3234L54.9695 83.0789C54.0968 84.1769 52.7783 85.084 50.9378 85.7588L51.6263 87.6366ZM56.5352 84.3234C57.6873 82.8739 58.287 81.2047 58.3241 79.3491L56.3245 79.3091C56.2962 80.7284 55.8478 81.9739 54.9695 83.0789L56.5352 84.3234ZM58.3241 79.3078C58.2865 77.5422 57.697 75.9758 56.5607 74.6501L55.0422 75.9517C55.8709 76.9185 56.2966 78.0375 56.3246 79.3503L58.3241 79.3078ZM56.5802 74.6736C55.4829 73.3114 53.7397 72.1823 51.4712 71.2343L50.7 73.0796C52.8199 73.9656 54.2206 74.9324 55.0227 75.9282L56.5802 74.6736ZM51.4828 71.2392C49.2054 70.2535 46.1721 69.3529 42.4083 68.5275L41.9799 70.481C45.683 71.2931 48.5773 72.1609 50.6884 73.0747L51.4828 71.2392ZM42.405 68.5267L32.3837 66.3653L31.962 68.3203L41.9833 70.4818L42.405 68.5267ZM32.3848 66.3655C23.5901 64.4578 16.7373 61.2903 11.7588 56.9143L10.4384 58.4165C15.7432 63.0793 22.9399 66.3633 31.9608 68.3201L32.3848 66.3655ZM11.7639 56.9187C6.90186 52.5866 4.45261 46.6719 4.48437 39.0515L2.48438 39.0432C2.45064 47.1425 5.07754 53.6398 10.4333 58.412L11.7639 56.9187ZM4.48436 39.0422C4.4526 32.8486 6.10035 27.4751 9.40513 22.8799L7.78143 21.7122C4.20884 26.6798 2.45065 32.4739 2.48439 39.0525L4.48436 39.0422ZM9.40439 22.8809C12.7586 18.2294 17.4065 14.5854 23.3882 11.9625L22.585 10.1308C16.3185 12.8787 11.3708 16.7344 7.78216 21.7112L9.40439 22.8809ZM23.3864 11.9632C29.3961 9.342 36.3135 8.01847 44.1591 8.01847V6.01847C36.0885 6.01847 28.8909 7.38038 22.5868 10.13L23.3864 11.9632ZM44.1591 8.01847C52.1714 8.01847 59.0476 9.35935 64.8165 12.0047L65.6501 10.1868C59.5637 7.39578 52.3905 6.01847 44.1591 6.01847V8.01847ZM64.8165 12.0047C70.5907 14.6526 75.0047 18.3657 78.1001 23.1352L79.7777 22.0464C76.4543 16.9255 71.7312 12.9753 65.6501 10.1868L64.8165 12.0047ZM78.1043 23.1416C81.2272 27.8732 82.8194 33.4261 82.8513 39.8383L84.8513 39.8284C84.8177 33.0754 83.135 27.1332 79.7735 22.04L78.1043 23.1416ZM83.8513 38.8333H57.7173V40.8333H83.8513V38.8333ZM111.336 105.758L110.863 106.639L110.869 106.642L111.336 105.758ZM97.9254 92.3961L97.0431 92.8669L97.0463 92.8728L97.9254 92.3961ZM97.9745 51.0336L98.8546 51.5083L97.9745 51.0336ZM111.287 37.4263L111.779 38.2966L111.287 37.4263ZM147.049 35.2157L147.407 34.2818L147.049 35.2157ZM158.888 42.9282L158.171 43.6247L158.174 43.6282L158.888 42.9282ZM166.453 55.1109L165.516 55.4578L166.453 55.1109ZM169.106 77.5606V78.5606H170.106V77.5606H169.106ZM101.708 77.5606H100.708V78.5606H101.708V77.5606ZM101.708 62.6269V61.6269H100.708V62.6269H101.708ZM144.151 62.6269V63.6269H145.166L145.151 62.6117L144.151 62.6269ZM142.481 56.9285L141.634 57.46L141.64 57.4697L141.646 57.4793L142.481 56.9285ZM138.207 53.0477L137.734 53.9287L137.744 53.9339L137.753 53.9389L138.207 53.0477ZM126.123 53.0477L126.57 53.9421L126.576 53.939L126.582 53.9357L126.123 53.0477ZM121.701 56.8794L120.874 56.317L120.867 56.3285L121.701 56.8794ZM119.982 62.6269L118.983 62.5971L118.982 62.612V62.6269H119.982ZM121.505 85.224L120.623 85.6953L121.505 85.224ZM125.877 89.6943L125.382 90.5634L125.877 89.6943ZM137.863 90.5294L137.547 89.5807L137.541 89.5827L137.863 90.5294ZM141.891 88.2697L142.553 89.0195L142.559 89.0141L142.565 89.0086L141.891 88.2697ZM144.348 84.6345V83.6345H143.653L143.41 84.2857L144.348 84.6345ZM169.106 84.6345L170.093 84.7949L170.282 83.6345H169.106V84.6345ZM163.064 98.291L163.834 98.9292L163.836 98.926L163.064 98.291ZM150.439 107.232L150.812 108.159L150.815 108.158L150.439 107.232ZM132.165 109.375C124.236 109.375 117.46 107.861 111.803 104.874L110.869 106.642C116.871 109.812 123.981 111.375 132.165 111.375V109.375ZM111.809 104.877C106.185 101.858 101.856 97.5449 98.8044 91.9193L97.0463 92.8728C100.283 98.8406 104.894 103.435 110.863 106.639L111.809 104.877ZM98.8076 91.9252C95.7895 86.2703 94.2586 79.464 94.2586 71.4692H92.2586C92.2586 79.7182 93.8388 86.8631 97.0431 92.8669L98.8076 91.9252ZM94.2586 71.4692C94.2586 63.8112 95.8022 57.168 98.8546 51.5083L97.0943 50.5589C93.8589 56.558 92.2586 63.5385 92.2586 71.4692H94.2586ZM98.8546 51.5083C101.91 45.8437 106.213 41.4455 111.779 38.2966L110.795 36.5559C104.899 39.8914 100.327 44.5648 97.0943 50.5589L98.8546 51.5083ZM111.779 38.2966C117.335 35.1538 123.922 33.563 131.575 33.563V31.563C123.64 31.563 116.702 33.2143 110.795 36.5559L111.779 38.2966ZM131.575 33.563C137.17 33.563 142.204 34.4309 146.692 36.1495L147.407 34.2818C142.659 32.4635 137.378 31.563 131.575 31.563V33.563ZM146.692 36.1495C151.181 37.8688 155.002 40.3612 158.171 43.6247L159.606 42.2316C156.224 38.7487 152.153 36.0995 147.407 34.2818L146.692 36.1495ZM158.174 43.6282C161.342 46.8593 163.792 50.7966 165.516 55.4578L167.391 54.764C165.578 49.8624 162.985 45.6779 159.602 42.2281L158.174 43.6282ZM165.516 55.4578C167.236 60.1106 168.106 65.3776 168.106 71.2727H170.106C170.106 65.1815 169.207 59.6741 167.391 54.764L165.516 55.4578ZM168.106 71.2727V77.5606H170.106V71.2727H168.106ZM169.106 76.5606H101.708V78.5606H169.106V76.5606ZM102.708 77.5606V62.6269H100.708V77.5606H102.708ZM101.708 63.6269H144.151V61.6269H101.708V63.6269ZM145.151 62.6117C145.116 60.2797 144.512 58.1903 143.315 56.3777L141.646 57.4793C142.611 58.9417 143.121 60.6511 143.151 62.642L145.151 62.6117ZM143.328 56.397C142.181 54.5695 140.619 53.1535 138.661 52.1565L137.753 53.9389C139.398 54.7759 140.685 55.947 141.634 57.46L143.328 56.397ZM138.68 52.1667C136.749 51.1295 134.569 50.6231 132.165 50.6231V52.6231C134.28 52.6231 136.128 53.0665 137.734 53.9287L138.68 52.1667ZM132.165 50.6231C129.821 50.6231 127.648 51.1318 125.663 52.1597L126.582 53.9357C128.265 53.0641 130.12 52.6231 132.165 52.6231V50.6231ZM125.675 52.1533C123.694 53.1439 122.088 54.5331 120.874 56.3171L122.528 57.4417C123.542 55.9507 124.883 54.7855 126.57 53.9421L125.675 52.1533ZM120.867 56.3285C119.672 58.1389 119.053 60.2399 118.983 62.5971L120.982 62.6567C121.042 60.6254 121.569 58.8948 122.536 57.4302L120.867 56.3285ZM118.982 62.6269V78.7396H120.982V62.6269H118.982ZM118.982 78.7396C118.982 81.3066 119.521 83.6335 120.623 85.6953L122.387 84.7526C121.458 83.0155 120.982 81.0195 120.982 78.7396H118.982ZM120.623 85.6953C121.729 87.7639 123.321 89.3908 125.382 90.5634L126.371 88.8251C124.634 87.8363 123.312 86.483 122.387 84.7526L120.623 85.6953ZM125.382 90.5634C127.463 91.7475 129.935 92.3153 132.754 92.3153V90.3153C130.203 90.3153 128.089 89.8025 126.371 88.8251L125.382 90.5634ZM132.754 92.3153C134.715 92.3153 136.528 92.0401 138.185 91.476L137.541 89.5827C136.12 90.0666 134.527 90.3153 132.754 90.3153V92.3153ZM138.179 91.478C139.864 90.9165 141.328 90.1005 142.553 89.0195L141.23 87.5198C140.228 88.4038 139.006 89.0942 137.547 89.5807L138.179 91.478ZM142.565 89.0086C143.796 87.8864 144.705 86.5411 145.285 84.9832L143.41 84.2857C142.942 85.5443 142.214 86.6224 141.218 87.5307L142.565 89.0086ZM144.348 85.6345H169.106V83.6345H144.348V85.6345ZM168.119 84.4741C167.294 89.5507 165.349 93.9364 162.291 97.6559L163.836 98.926C167.132 94.9167 169.215 90.1981 170.093 84.7949L168.119 84.4741ZM162.294 97.6527C159.236 101.341 155.171 104.23 150.063 106.305L150.815 108.158C156.187 105.976 160.538 102.904 163.834 98.9292L162.294 97.6527ZM150.066 106.304C145.002 108.342 139.042 109.375 132.165 109.375V111.375C139.238 111.375 145.462 110.313 150.812 108.159L150.066 106.304ZM180.171 109H179.171V110H180.171V109ZM180.171 33.5455V32.5455H179.171V33.5455H180.171ZM206.502 33.5455H207.502V32.5455H206.502V33.5455ZM206.502 47.8897H205.502V48.8897H206.502V47.8897ZM207.288 47.8897V48.8897H208.062L208.256 48.1406L207.288 47.8897ZM213.821 36.2473L213.189 35.4722L213.185 35.4756L213.821 36.2473ZM227.871 32.8577L227.702 33.8433L227.717 33.846L227.733 33.8482L227.871 32.8577ZM231.26 33.5946H232.26V32.8527L231.55 32.6376L231.26 33.5946ZM231.26 56.732L230.937 57.6784L232.26 58.1302V56.732H231.26ZM226.299 55.7004L226.415 54.7071L226.299 55.7004ZM214.067 57.1741L214.557 58.0457L214.562 58.0432L214.067 57.1741ZM209.105 62.1848L209.974 62.6795L209.978 62.6738L209.105 62.1848ZM207.288 109V110H208.288V109H207.288ZM181.171 109V33.5455H179.171V109H181.171ZM180.171 34.5455H206.502V32.5455H180.171V34.5455ZM205.502 33.5455V47.8897H207.502V33.5455H205.502ZM206.502 48.8897H207.288V46.8897H206.502V48.8897ZM208.256 48.1406C209.6 42.9567 211.695 39.2952 214.457 37.019L213.185 35.4756C209.987 38.1117 207.727 42.2119 206.32 47.6387L208.256 48.1406ZM214.453 37.0224C217.281 34.7173 220.576 33.563 224.383 33.563V31.563C220.134 31.563 216.388 32.8649 213.189 35.4722L214.453 37.0224ZM224.383 33.563C225.506 33.563 226.612 33.6565 227.702 33.8433L228.04 31.8721C226.837 31.6659 225.618 31.563 224.383 31.563V33.563ZM227.733 33.8482C228.863 34.0052 229.942 34.24 230.97 34.5516L231.55 32.6376C230.417 32.2942 229.236 32.0378 228.008 31.8672L227.733 33.8482ZM230.26 33.5946V56.732H232.26V33.5946H230.26ZM231.583 55.7857C230.153 55.2972 228.425 54.9417 226.415 54.7071L226.183 56.6937C228.103 56.9176 229.682 57.2498 230.937 57.6784L231.583 55.7857ZM226.415 54.7071C224.425 54.4751 222.698 54.3565 221.239 54.3565V56.3565C222.597 56.3565 224.242 56.4673 226.183 56.6937L226.415 54.7071ZM221.239 54.3565C218.428 54.3565 215.864 55.0005 213.572 56.3051L214.562 58.0432C216.527 56.9243 218.745 56.3565 221.239 56.3565V54.3565ZM213.577 56.3026C211.316 57.5744 209.532 59.3792 208.233 61.6958L209.978 62.6738C211.102 60.6674 212.626 59.1318 214.557 58.0457L213.577 56.3026ZM208.236 61.6901C206.925 63.9942 206.288 66.6762 206.288 69.7008H208.288C208.288 66.9615 208.863 64.6327 209.974 62.6795L208.236 61.6901ZM206.288 69.7008V109H208.288V69.7008H206.288ZM207.288 108H180.171V110H207.288V108ZM318.492 33.5455L319.44 33.8639L319.883 32.5455H318.492V33.5455ZM293.144 109V110H293.863L294.092 109.318L293.144 109ZM261.705 109L260.757 109.318L260.986 110H261.705V109ZM236.357 33.5455V32.5455H234.966L235.409 33.8639L236.357 33.5455ZM264.849 33.5455L265.82 33.3083L265.634 32.5455H264.849V33.5455ZM277.032 83.4555L276.06 83.6926L276.246 84.4555H277.032V83.4555ZM277.818 83.4555V84.4555H278.603L278.789 83.6926L277.818 83.4555ZM290 33.5455V32.5455H289.215L289.029 33.3083L290 33.5455ZM317.544 33.227L292.196 108.682L294.092 109.318L319.44 33.8639L317.544 33.227ZM293.144 108H261.705V110H293.144V108ZM262.653 108.682L237.305 33.227L235.409 33.8639L260.757 109.318L262.653 108.682ZM236.357 34.5455H264.849V32.5455H236.357V34.5455ZM263.877 33.7826L276.06 83.6926L278.003 83.2184L265.82 33.3083L263.877 33.7826ZM277.032 84.4555H277.818V82.4555H277.032V84.4555ZM278.789 83.6926L290.972 33.7826L289.029 33.3083L276.846 83.2184L278.789 83.6926ZM290 34.5455H318.492V32.5455H290V34.5455ZM326.205 109H325.205V110H326.205V109ZM326.205 33.5455V32.5455H325.205V33.5455H326.205ZM353.321 33.5455H354.321V32.5455H353.321V33.5455ZM353.321 109V110H354.321V109H353.321ZM330.331 22.0504L329.652 22.7845L330.331 22.0504ZM330.331 4.56226L329.652 3.82816L330.331 4.56226ZM349.195 4.56226L348.511 5.2921L348.516 5.29636L349.195 4.56226ZM349.195 22.0504L348.516 21.3163L348.511 21.3206L349.195 22.0504ZM327.205 109V33.5455H325.205V109H327.205ZM326.205 34.5455H353.321V32.5455H326.205V34.5455ZM352.321 33.5455V109H354.321V33.5455H352.321ZM353.321 108H326.205V110H353.321V108ZM339.763 24.6856C336.339 24.6856 333.44 23.5637 331.01 21.3163L329.652 22.7845C332.463 25.3841 335.851 26.6856 339.763 26.6856V24.6856ZM331.01 21.3163C328.584 19.0719 327.401 16.4188 327.401 13.3063H325.401C325.401 17.0057 326.839 20.182 329.652 22.7845L331.01 21.3163ZM327.401 13.3063C327.401 10.1938 328.584 7.54076 331.01 5.29636L329.652 3.82816C326.839 6.43068 325.401 9.60698 325.401 13.3063H327.401ZM331.01 5.29636C333.44 3.04903 336.339 1.92709 339.763 1.92709V-0.0729122C335.851 -0.0729122 332.463 1.22859 329.652 3.82816L331.01 5.29636ZM339.763 1.92709C343.222 1.92709 346.118 3.05046 348.511 5.29209L349.879 3.83244C347.097 1.22717 343.705 -0.0729122 339.763 -0.0729122V1.92709ZM348.516 5.29636C350.942 7.54076 352.125 10.1938 352.125 13.3063H354.125C354.125 9.60698 352.687 6.43068 349.874 3.82816L348.516 5.29636ZM352.125 13.3063C352.125 16.4188 350.942 19.0719 348.516 21.3163L349.874 22.7845C352.687 20.182 354.125 17.0057 354.125 13.3063H352.125ZM348.511 21.3206C346.118 23.5622 343.222 24.6856 339.763 24.6856V26.6856C343.705 26.6856 347.097 25.3855 349.879 22.7803L348.511 21.3206ZM382.464 105.512L381.974 106.384L381.978 106.386L382.464 105.512ZM369.053 91.8557L368.17 92.3245L368.171 92.3266L369.053 91.8557ZM369.053 51.1319L369.935 51.6027L369.937 51.6007L369.053 51.1319ZM382.464 37.4754L382.95 38.3493L382.954 38.3472L382.464 37.4754ZM422.697 36.5911L422.252 37.4867L422.258 37.4899L422.697 36.5911ZM435.322 47.8897L434.468 48.4109L434.47 48.4135L435.322 47.8897ZM439.841 64.9848V65.9848H440.846L440.841 64.9799L439.841 64.9848ZM414.69 64.9848L413.694 65.0754L413.776 65.9848H414.69V64.9848ZM411.251 55.946L410.51 56.6175L410.515 56.6236L410.521 56.6296L411.251 55.946ZM397.693 54.8653L398.297 55.6618L398.307 55.6546L397.693 54.8653ZM393.566 61.0058L394.507 61.3457L394.508 61.3421L393.566 61.0058ZM393.566 81.5888L392.624 81.9251L392.626 81.9287L393.566 81.5888ZM397.693 87.7293L397.079 88.5187L397.088 88.5257L397.693 87.7293ZM409.188 88.3679L409.699 89.227L409.706 89.223L409.713 89.2189L409.188 88.3679ZM412.921 84.2415L412.04 83.7692L412.036 83.7751L412.921 84.2415ZM414.69 77.5606V76.5606H413.762L413.692 77.4858L414.69 77.5606ZM439.841 77.5606L440.841 77.5754L440.856 76.5606H439.841V77.5606ZM435.272 94.9505L436.13 95.465L436.132 95.4625L435.272 94.9505ZM422.746 106.347L422.301 105.452L422.299 105.453L422.746 106.347ZM403.489 109.375C395.434 109.375 388.601 107.781 382.95 104.638L381.978 106.386C387.986 109.728 395.17 111.375 403.489 111.375V109.375ZM382.954 104.64C377.289 101.458 372.956 97.0438 369.935 91.3849L368.171 92.3266C371.373 98.3264 375.981 103.017 381.974 106.384L382.954 104.64ZM369.937 91.3869C366.914 85.6912 365.387 79.0616 365.387 71.4692H363.387C363.387 79.3345 364.97 86.2959 368.17 92.3245L369.937 91.3869ZM365.387 71.4692C365.387 63.8767 366.914 57.2644 369.935 51.6027L368.171 50.661C364.97 56.6581 363.387 63.6041 363.387 71.4692H365.387ZM369.937 51.6007C372.957 45.91 377.289 41.4981 382.95 38.3493L381.978 36.6015C375.981 39.937 371.372 44.6294 368.17 50.6631L369.937 51.6007ZM382.954 38.3472C388.604 35.1732 395.435 33.563 403.489 33.563V31.563C395.169 31.563 387.983 33.2277 381.974 36.6035L382.954 38.3472ZM403.489 33.563C410.771 33.563 417.014 34.8838 422.252 37.4867L423.142 35.6956C417.572 32.9276 411.011 31.563 403.489 31.563V33.563ZM422.258 37.4899C427.534 40.064 431.593 43.7037 434.468 48.4109L436.175 47.3685C433.09 42.3164 428.733 38.4237 423.135 35.6924L422.258 37.4899ZM434.47 48.4135C437.34 53.0819 438.809 58.595 438.841 64.9899L440.841 64.9799C440.807 58.275 439.263 52.3913 436.173 47.3659L434.47 48.4135ZM439.841 63.9848H414.69V65.9848H439.841V63.9848ZM415.685 64.8943C415.313 60.7983 414.116 57.5429 411.981 55.2625L410.521 56.6296C412.25 58.4755 413.345 61.246 413.694 65.0754L415.685 64.8943ZM411.992 55.2745C409.889 52.9545 407.157 51.8021 403.882 51.8021V53.8021C406.634 53.8021 408.813 54.7456 410.51 56.6175L411.992 55.2745ZM403.882 51.8021C401.314 51.8021 399.032 52.5564 397.079 54.0759L398.307 55.6546C399.89 54.4232 401.734 53.8021 403.882 53.8021V51.8021ZM397.088 54.0688C395.123 55.5607 393.652 57.7924 392.624 60.6695L394.508 61.3421C395.445 58.7173 396.725 56.8553 398.297 55.6617L397.088 54.0688ZM392.626 60.6659C391.591 63.5289 391.092 67.0758 391.092 71.2727H393.092C393.092 67.2168 393.576 63.9191 394.507 61.3457L392.626 60.6659ZM391.092 71.2727C391.092 75.4703 391.591 79.0317 392.624 81.9251L394.508 81.2524C393.576 78.6439 393.092 75.328 393.092 71.2727H391.092ZM392.626 81.9287C393.654 84.7737 395.124 86.998 397.079 88.5186L398.307 86.9399C396.725 85.7096 395.443 83.8402 394.507 81.2489L392.626 81.9287ZM397.088 88.5257C399.041 90.009 401.32 90.7434 403.882 90.7434V88.7434C401.728 88.7434 399.881 88.135 398.297 86.9328L397.088 88.5257ZM403.882 90.7434C406.039 90.7434 407.988 90.2465 409.699 89.227L408.676 87.5088C407.309 88.3233 405.721 88.7434 403.882 88.7434V90.7434ZM409.713 89.2189C411.422 88.164 412.783 86.6468 413.806 84.7079L412.036 83.7751C411.159 85.4386 410.031 86.6723 408.663 87.5169L409.713 89.2189ZM413.803 84.7137C414.866 82.729 415.482 80.3591 415.687 77.6354L413.692 77.4858C413.504 80.002 412.941 82.086 412.04 83.7693L413.803 84.7137ZM414.69 78.5606H439.841V76.5606H414.69V78.5606ZM438.841 77.5458C438.745 84.0462 437.258 89.6659 434.414 94.4385L436.132 95.4625C439.182 90.3448 440.741 84.3712 440.841 77.5754L438.841 77.5458ZM434.415 94.436C431.571 99.1757 427.543 102.847 422.301 105.452L423.191 107.243C428.756 104.477 433.079 100.55 436.13 95.465L434.415 94.436ZM422.299 105.453C417.096 108.054 410.838 109.375 403.489 109.375V111.375C411.074 111.375 417.654 110.011 423.193 107.242L422.299 105.453ZM466.356 105.758L465.883 106.639L465.889 106.642L466.356 105.758ZM452.945 92.3961L452.063 92.8669L452.066 92.8728L452.945 92.3961ZM452.994 51.0336L453.874 51.5083L452.994 51.0336ZM466.307 37.4263L466.799 38.2966L466.307 37.4263ZM502.069 35.2157L502.427 34.2818L502.069 35.2157ZM513.908 42.9282L513.19 43.6247L513.194 43.6282L513.908 42.9282ZM521.473 55.1109L520.535 55.4578L521.473 55.1109ZM524.126 77.5606V78.5606H525.126V77.5606H524.126ZM456.727 77.5606H455.727V78.5606H456.727V77.5606ZM456.727 62.6269V61.6269H455.727V62.6269H456.727ZM499.171 62.6269V63.6269H500.186L500.171 62.6117L499.171 62.6269ZM497.5 56.9285L496.653 57.46L496.659 57.4697L496.666 57.4793L497.5 56.9285ZM493.227 53.0477L492.753 53.9287L492.763 53.9339L492.773 53.9389L493.227 53.0477ZM481.142 53.0477L481.589 53.9421L481.596 53.939L481.602 53.9357L481.142 53.0477ZM476.721 56.8794L475.894 56.317L475.886 56.3285L476.721 56.8794ZM475.002 62.6269L474.002 62.5971L474.002 62.612V62.6269H475.002ZM476.524 85.224L475.642 85.6953L476.524 85.224ZM480.896 89.6943L480.402 90.5634L480.896 89.6943ZM492.883 90.5294L492.566 89.5807L492.56 89.5827L492.883 90.5294ZM496.911 88.2697L497.573 89.0195L497.579 89.0141L497.585 89.0086L496.911 88.2697ZM499.367 84.6345V83.6345H498.672L498.43 84.2857L499.367 84.6345ZM524.126 84.6345L525.113 84.7949L525.301 83.6345H524.126V84.6345ZM518.083 98.291L518.853 98.9292L518.856 98.926L518.083 98.291ZM505.458 107.232L505.832 108.159L505.835 108.158L505.458 107.232ZM487.184 109.375C479.255 109.375 472.48 107.861 466.823 104.874L465.889 106.642C471.891 109.812 479.001 111.375 487.184 111.375V109.375ZM466.829 104.877C461.204 101.858 456.875 97.5449 453.824 91.9193L452.066 92.8728C455.303 98.8406 459.914 103.435 465.883 106.639L466.829 104.877ZM453.827 91.9252C450.809 86.2703 449.278 79.464 449.278 71.4692H447.278C447.278 79.7182 448.858 86.8631 452.063 92.8669L453.827 91.9252ZM449.278 71.4692C449.278 63.8112 450.822 57.168 453.874 51.5083L452.114 50.5589C448.878 56.558 447.278 63.5385 447.278 71.4692H449.278ZM453.874 51.5083C456.929 45.8437 461.233 41.4455 466.799 38.2966L465.814 36.5559C459.918 39.8914 455.347 44.5648 452.114 50.5589L453.874 51.5083ZM466.799 38.2966C472.354 35.1538 478.941 33.563 486.595 33.563V31.563C478.66 31.563 471.721 33.2143 465.814 36.5559L466.799 38.2966ZM486.595 33.563C492.189 33.563 497.224 34.4309 501.711 36.1495L502.427 34.2818C497.679 32.4635 492.397 31.563 486.595 31.563V33.563ZM501.711 36.1495C506.2 37.8688 510.022 40.3612 513.19 43.6247L514.625 42.2316C511.244 38.7487 507.173 36.0995 502.427 34.2818L501.711 36.1495ZM513.194 43.6282C516.361 46.8593 518.811 50.7966 520.535 55.4578L522.411 54.764C520.598 49.8624 518.004 45.6779 514.622 42.2281L513.194 43.6282ZM520.535 55.4578C522.256 60.1106 523.126 65.3776 523.126 71.2727H525.126C525.126 65.1815 524.227 59.6741 522.411 54.764L520.535 55.4578ZM523.126 71.2727V77.5606H525.126V71.2727H523.126ZM524.126 76.5606H456.727V78.5606H524.126V76.5606ZM457.727 77.5606V62.6269H455.727V77.5606H457.727ZM456.727 63.6269H499.171V61.6269H456.727V63.6269ZM500.171 62.6117C500.135 60.2797 499.531 58.1903 498.335 56.3777L496.666 57.4793C497.631 58.9417 498.141 60.6511 498.171 62.642L500.171 62.6117ZM498.347 56.397C497.201 54.5695 495.639 53.1535 493.68 52.1565L492.773 53.9389C494.417 54.7759 495.704 55.947 496.653 57.46L498.347 56.397ZM493.7 52.1667C491.768 51.1295 489.588 50.6231 487.184 50.6231V52.6231C489.3 52.6231 491.148 53.0665 492.753 53.9287L493.7 52.1667ZM487.184 50.6231C484.84 50.6231 482.667 51.1318 480.682 52.1597L481.602 53.9357C483.285 53.0641 485.14 52.6231 487.184 52.6231V50.6231ZM480.695 52.1533C478.714 53.1439 477.107 54.5331 475.894 56.3171L477.548 57.4417C478.562 55.9507 479.903 54.7855 481.589 53.9421L480.695 52.1533ZM475.886 56.3285C474.691 58.1389 474.072 60.2399 474.002 62.5971L476.001 62.6567C476.062 60.6254 476.589 58.8948 477.556 57.4302L475.886 56.3285ZM474.002 62.6269V78.7396H476.002V62.6269H474.002ZM474.002 78.7396C474.002 81.3066 474.54 83.6335 475.642 85.6953L477.406 84.7526C476.478 83.0155 476.002 81.0195 476.002 78.7396H474.002ZM475.642 85.6953C476.748 87.7639 478.341 89.3908 480.402 90.5634L481.391 88.8251C479.653 87.8363 478.331 86.483 477.406 84.7526L475.642 85.6953ZM480.402 90.5634C482.483 91.7475 484.954 92.3153 487.774 92.3153V90.3153C485.222 90.3153 483.109 89.8025 481.391 88.8251L480.402 90.5634ZM487.774 92.3153C489.734 92.3153 491.548 92.0401 493.205 91.476L492.56 89.5827C491.139 90.0666 489.547 90.3153 487.774 90.3153V92.3153ZM493.199 91.478C494.883 90.9165 496.347 90.1005 497.573 89.0195L496.249 87.5198C495.247 88.4038 494.026 89.0942 492.566 89.5807L493.199 91.478ZM497.585 89.0086C498.815 87.8864 499.725 86.5411 500.304 84.9832L498.43 84.2857C497.962 85.5443 497.233 86.6224 496.237 87.5307L497.585 89.0086ZM499.367 85.6345H524.126V83.6345H499.367V85.6345ZM523.139 84.4741C522.314 89.5507 520.368 93.9364 517.311 97.6559L518.856 98.926C522.152 94.9167 524.235 90.1981 525.113 84.7949L523.139 84.4741ZM517.314 97.6527C514.256 101.341 510.19 104.23 505.082 106.305L505.835 108.158C511.207 105.976 515.558 102.904 518.853 98.9292L517.314 97.6527ZM505.085 106.304C500.022 108.342 494.062 109.375 487.184 109.375V111.375C494.258 111.375 500.481 110.313 505.832 108.159L505.085 106.304ZM604.161 58.1075V59.1075H605.203L605.16 58.0665L604.161 58.1075ZM579.206 58.1075L578.21 58.1923L578.287 59.1075H579.206V58.1075ZM577.585 54.1284L578.346 53.4795L577.585 54.1284ZM573.901 51.574L573.512 52.4952L573.524 52.5004L573.536 52.5052L573.901 51.574ZM562.995 51.9178L562.541 51.0269L562.995 51.9178ZM560.539 55.553L561.538 55.5824L561.539 55.5573L561.539 55.5322L560.539 55.553ZM561.963 58.6478L561.268 59.3668L561.274 59.3725L561.28 59.3781L561.963 58.6478ZM567.809 60.8584L567.63 61.8423L567.633 61.8427L567.809 60.8584ZM583.136 63.6094L583.315 62.6256L583.313 62.6251L583.136 63.6094ZM600.378 70.7324L599.715 71.4805L599.722 71.4865L600.378 70.7324ZM606.126 84.045L607.126 84.0511L607.126 84.0391L606.126 84.045ZM601.312 98.0453L600.532 97.4199L600.531 97.4206L601.312 98.0453ZM588.392 107.182L588.757 108.114L588.76 108.112L588.392 107.182ZM542.707 103.302L542.119 104.11L542.121 104.112L542.707 103.302ZM531.85 84.6345V83.6345H530.748L530.855 84.7315L531.85 84.6345ZM558.77 84.6345L559.759 84.4855L559.631 83.6345H558.77V84.6345ZM562.307 90.1855L561.759 91.0217L561.767 91.0269L561.775 91.0319L562.307 90.1855ZM576.111 90.8241L575.65 89.9369L575.642 89.9408L576.111 90.8241ZM578.617 87.1889L579.616 87.2097L579.617 87.188L579.616 87.1662L578.617 87.1889ZM576.455 83.7502L575.929 84.6005L575.938 84.606L576.455 83.7502ZM569.971 81.687L570.146 80.7025L570.144 80.7022L569.971 81.687ZM556.609 79.3291L556.783 78.3443L556.781 78.344L556.609 79.3291ZM539.317 71.6657L540.018 70.9525L539.317 71.6657ZM533.619 57.125L534.619 57.1305L534.619 57.1188L533.619 57.125ZM537.745 43.8124L536.952 43.2034L536.951 43.2044L537.745 43.8124ZM549.781 35.4613L550.123 36.4007L550.127 36.3995L549.781 35.4613ZM594.189 39.3421L593.605 40.1541L593.607 40.1555L594.189 39.3421ZM604.161 57.1075H579.206V59.1075H604.161V57.1075ZM580.202 58.0227C580.055 56.2877 579.439 54.7609 578.346 53.4795L576.824 54.7774C577.631 55.7229 578.095 56.8488 578.21 58.1923L580.202 58.0227ZM578.346 53.4795C577.278 52.2279 575.908 51.2858 574.265 50.6427L573.536 52.5052C574.906 53.0411 575.992 53.802 576.824 54.7774L578.346 53.4795ZM574.29 50.6527C572.678 49.9724 570.906 49.6406 568.988 49.6406V51.6406C570.673 51.6406 572.176 51.9311 573.512 52.4952L574.29 50.6527ZM568.988 49.6406C566.542 49.6406 564.382 50.0886 562.541 51.0269L563.449 52.8088C564.949 52.0442 566.784 51.6406 568.988 51.6406V49.6406ZM562.541 51.0269C561.596 51.5084 560.827 52.1252 560.3 52.9054C559.766 53.6956 559.519 54.5976 559.539 55.5739L561.539 55.5322C561.526 54.9364 561.672 54.4467 561.957 54.0251C562.248 53.5936 562.723 53.1788 563.449 52.8088L562.541 51.0269ZM559.539 55.5236C559.496 56.9804 560.133 58.2694 561.268 59.3668L562.658 57.9289C561.829 57.1268 561.516 56.3526 561.538 55.5824L559.539 55.5236ZM561.28 59.3781C562.523 60.5404 564.727 61.3145 567.63 61.8423L567.988 59.8746C565.127 59.3544 563.435 58.6547 562.647 57.9176L561.28 59.3781ZM567.633 61.8427L582.959 64.5937L583.313 62.6251L567.986 59.8742L567.633 61.8427ZM582.957 64.5932C590.598 65.9854 596.142 68.3114 599.715 71.4805L601.042 69.9842C597.083 66.4724 591.132 64.0498 583.315 62.6256L582.957 64.5932ZM599.722 71.4865C603.28 74.5845 605.095 78.7368 605.126 84.0509L607.126 84.0391C607.092 78.2184 605.075 73.4956 601.035 69.9782L599.722 71.4865ZM605.126 84.0389C605.095 89.1984 603.559 93.6436 600.532 97.4199L602.092 98.6708C605.418 94.5218 607.092 89.6334 607.126 84.0511L605.126 84.0389ZM600.531 97.4206C597.513 101.193 593.359 104.144 588.025 106.252L588.76 108.112C594.363 105.898 598.823 102.757 602.093 98.67L600.531 97.4206ZM588.028 106.251C582.728 108.327 576.649 109.375 569.774 109.375V111.375C576.851 111.375 583.184 110.296 588.757 108.114L588.028 106.251ZM569.774 109.375C558.369 109.375 549.58 107.041 543.293 102.491L542.121 104.112C548.868 108.994 558.124 111.375 569.774 111.375V109.375ZM543.295 102.493C537.033 97.9389 533.57 91.9714 532.846 84.5375L530.855 84.7315C531.637 92.7552 535.412 99.2325 542.119 104.11L543.295 102.493ZM531.85 85.6345H558.77V83.6345H531.85V85.6345ZM557.782 84.7835C558.184 87.4516 559.52 89.5536 561.759 91.0217L562.856 89.3492C561.099 88.1974 560.078 86.5987 559.759 84.4855L557.782 84.7835ZM561.775 91.0319C564.004 92.4343 566.757 93.1013 569.971 93.1013V91.1013C567.028 91.1013 564.671 90.4911 562.84 89.339L561.775 91.0319ZM569.971 93.1013C572.566 93.1013 574.787 92.6586 576.58 91.7075L575.642 89.9408C574.226 90.6926 572.354 91.1013 569.971 91.1013V93.1013ZM576.573 91.7113C578.467 90.7264 579.574 89.2177 579.616 87.2097L577.617 87.1681C577.593 88.3041 577.031 89.2188 575.65 89.9369L576.573 91.7113ZM579.616 87.1662C579.575 85.33 578.625 83.8934 576.972 82.8945L575.938 84.606C577.102 85.31 577.593 86.1659 577.617 87.2116L579.616 87.1662ZM576.981 82.9C575.442 81.9472 573.13 81.233 570.146 80.7025L569.796 82.6716C572.706 83.189 574.717 83.8503 575.929 84.6005L576.981 82.9ZM570.144 80.7022L556.783 78.3443L556.435 80.3139L569.797 82.6718L570.144 80.7022ZM556.781 78.344C549.198 77.021 543.653 74.5254 540.018 70.9525L538.616 72.3789C542.645 76.3384 548.628 78.9517 556.437 80.3142L556.781 78.344ZM540.018 70.9525C536.4 67.3963 534.587 62.8188 534.619 57.1305L532.619 57.1195C532.585 63.2865 534.571 68.4028 538.616 72.3789L540.018 70.9525ZM534.619 57.1188C534.587 52.0672 535.91 47.8544 538.539 44.4204L536.951 43.2044C534.014 47.0407 532.585 51.703 532.619 57.1312L534.619 57.1188ZM538.538 44.4214C541.218 40.9318 545.059 38.2482 550.123 36.4007L549.438 34.5218C544.088 36.4734 539.906 39.3571 536.952 43.2034L538.538 44.4214ZM550.127 36.3995C555.229 34.5179 561.313 33.563 568.399 33.563V31.563C561.14 31.563 554.812 32.5402 549.435 34.5231L550.127 36.3995ZM568.399 33.563C579.178 33.563 587.544 35.7977 593.605 40.1541L594.772 38.5301C588.258 33.8476 579.431 31.563 568.399 31.563V33.563ZM593.607 40.1555C599.669 44.4896 602.847 50.4552 603.162 58.1484L605.16 58.0665C604.82 49.7781 601.35 43.2335 594.77 38.5286L593.607 40.1555Z" fill="#D2D4F9"/>
</svg>
